<svg width="18" height="18" viewBox="0 0 18 18" fill="none" xmlns="http://www.w3.org/2000/svg">
<g clip-path="url(#clip0_9008_8948)">
<path d="M8.97678 17.998C6.56527 17.998 4.15428 17.998 1.74383 17.998C0.835517 17.998 0.201461 17.4168 0.0303519 16.4382C-0.0751918 15.8359 0.110305 15.3233 0.375763 14.8259C1.26915 13.1348 2.15774 11.4399 3.04154 9.74126C4.56126 6.83369 6.08045 3.92552 7.59911 1.01668C8.30353 -0.328794 9.70839 -0.339292 10.4088 0.999511C12.8443 5.65531 15.2772 10.3133 17.7073 14.9736C18.2878 16.0865 17.976 17.3806 17.0293 17.8398C16.7673 17.9572 16.4886 18.0119 16.2089 18.0009C13.7985 17.9977 11.3878 17.9968 8.97678 17.998ZM7.98051 7.03986H8.03408C8.07406 8.0531 8.11431 9.06569 8.15482 10.0777C8.17801 10.6322 8.19959 11.1859 8.23077 11.7395C8.26276 12.3112 8.57939 12.6924 9.00956 12.6866C9.43973 12.6809 9.74357 12.3331 9.77236 11.7338C9.86937 9.70919 9.96185 7.68431 10.0498 5.65911C10.059 5.48842 10.0391 5.31728 9.9913 5.15601C9.94349 4.99474 9.86877 4.8467 9.77163 4.72079C9.6745 4.59488 9.55696 4.49368 9.42612 4.42338C9.29529 4.35308 9.15385 4.3151 9.01036 4.31172C8.43067 4.306 7.98451 4.87012 7.98451 5.61147L7.98051 7.03986ZM9.83712 14.3771C9.84251 14.1126 9.75998 13.8564 9.60751 13.6641C9.45504 13.4719 9.245 13.3593 9.02315 13.3508C8.58339 13.3318 8.1708 13.811 8.16921 14.3408C8.17449 14.6054 8.26509 14.8573 8.42218 15.0444C8.57926 15.2314 8.79077 15.3391 9.01276 15.3452C9.22846 15.3388 9.43396 15.2344 9.5872 15.0534C9.74044 14.8723 9.82985 14.6284 9.83712 14.3714V14.3771Z" fill="white"/>
</g>
<defs>
<clipPath id="clip0_9008_8948">
<rect width="18" height="18" fill="white"/>
</clipPath>
</defs>
</svg>
