<svg width="17" height="9" viewBox="0 0 17 9" fill="none" xmlns="http://www.w3.org/2000/svg">
<path d="M4.35132 5.66826C4.93668 6.2411 5.51315 6.82485 6.11331 7.38382C6.34923 7.60384 6.35712 7.75052 6.11331 7.96657C5.79349 8.25002 5.49735 8.56122 5.20517 8.87539C5.04032 9.05279 4.92286 9.03397 4.76097 8.87044C3.38297 7.475 2.00102 6.08418 0.615127 4.69798C0.460151 4.54239 0.471009 4.45121 0.615127 4.30155C2.00234 2.91404 3.38429 1.52323 4.76097 0.129107C4.92878 -0.0403677 5.0571 -0.0502788 5.20221 0.135053C5.22398 0.159723 5.24705 0.183214 5.27131 0.205422C5.62272 0.574104 6.2209 0.918997 6.25841 1.31741C6.29592 1.71583 5.64838 2.06171 5.295 2.42148C4.98702 2.73466 4.63956 3.00919 4.30789 3.29957C4.52012 3.53545 4.67707 3.47599 4.81428 3.47599C7.8743 3.47599 10.9343 3.47599 13.9944 3.48788C14.4001 3.48788 14.5392 3.38877 14.5234 2.96558C14.4928 2.141 14.5235 1.31444 14.5106 0.487878C14.5106 0.216322 14.5896 0.0983852 14.8768 0.11226C15.2879 0.133569 15.6997 0.133569 16.1107 0.11226C16.4276 0.0934298 16.4937 0.230195 16.4917 0.517609C16.4809 2.03693 16.473 3.55626 16.4967 5.07658C16.5026 5.47301 16.3575 5.53149 16.011 5.53049C12.3262 5.51959 8.64128 5.52455 4.95543 5.52455H4.42338L4.35132 5.66826Z" fill="white"/>
</svg>
