<svg width="14" height="14" viewBox="0 0 14 14" fill="none" xmlns="http://www.w3.org/2000/svg">
<path fill-rule="evenodd" clip-rule="evenodd" d="M0.637685 1.50433C0.733269 1.29831 0.93973 1.1665 1.16684 1.1665H12.8335C13.0606 1.1665 13.2671 1.29831 13.3627 1.50433C13.4582 1.71034 13.4256 1.9531 13.2789 2.12651L8.75017 7.48176V12.2498C8.75017 12.452 8.64549 12.6398 8.47351 12.746C8.30154 12.8523 8.08679 12.862 7.90596 12.7716L5.57263 11.6049C5.37501 11.5061 5.25017 11.3041 5.25017 11.0832V7.48176L0.721421 2.12651C0.574773 1.9531 0.542101 1.71034 0.637685 1.50433ZM2.4241 2.33317L6.27892 6.8915C6.36797 6.9968 6.41684 7.13026 6.41684 7.26817V10.7227L7.5835 11.306V7.26817C7.5835 7.13026 7.63237 6.9968 7.72142 6.8915L11.5762 2.33317H2.4241Z" fill="black"/>
</svg>
