<svg width="30" height="24" viewBox="0 0 30 24" fill="none" xmlns="http://www.w3.org/2000/svg">
<path d="M22.4339 2.00049C29.5479 6.30415 30.1783 17.0102 22.3988 21.9911C26.7133 15.3303 26.6945 8.62822 22.4339 2.00049Z" fill="white"/>
<path d="M7.60065 21.9993C-0.327922 16.858 0.611932 6.11068 7.55805 2.01465C3.29364 8.62705 3.29113 15.3161 7.60065 21.9993Z" fill="white"/>
<path d="M18.2096 11.5767C18.2096 13.504 16.8174 14.9951 15.0029 14.9978C13.1545 14.9978 11.7961 13.5362 11.7823 11.5257C11.7698 9.60243 13.1607 8.10999 14.9866 8.10597C16.8287 8.10194 18.2046 9.58228 18.2096 11.5767Z" fill="white"/>
<path d="M10.9214 5.43848C8.73219 9.82 8.74597 14.1354 10.8988 18.4533C9.36376 17.9507 7.15073 15.5382 6.92392 12.7575C6.66828 9.60883 8.38006 6.4908 10.9214 5.43848Z" fill="white"/>
<path d="M19.0267 5.34033C21.4502 6.75601 22.8211 8.68369 23.058 11.2071C23.3525 14.3547 21.9828 16.7896 19.1357 18.5038C21.2547 14.1435 21.266 9.8068 19.0267 5.34033Z" fill="white"/>
</svg>
